<svg xmlns="http://www.w3.org/2000/svg" viewBox="0 0 1074.24 251.5"><g id="Layer_2" data-name="Layer 2"><g id="Layer_1-2" data-name="Layer 1"><path d="M1010,82.6a38.33,38.33,0,0,1-2.9,2.8,51.74,51.74,0,0,1-6.9,4.6,65.28,65.28,0,0,1-7,3.5c-2.9,1.2-6.1,2.4-9.6,3.5-2.2.8-4.6,1.4-7.2,2.1l-1.4.3a26.14,26.14,0,0,1-2.7.6,70.79,70.79,0,0,0,.9-11.3,65.71,65.71,0,0,0-3.6-21.6A51.93,51.93,0,0,0,959.5,50a47,47,0,0,0-15.6-11.3,54.5,54.5,0,0,0-41.6,0,45.32,45.32,0,0,0-15.5,11.2,54.73,54.73,0,0,0-9.9,17.2,63.61,63.61,0,0,0-3.6,21.6,66.79,66.79,0,0,0,.9,10.9c0,.2.1.5.1.7-1.1-.2-2.2-.5-3.2-.7-.5-.1-1-.2-1.4-.3-2-.5-4-1-5.9-1.6-2.4-.7-4.7-1.4-6.8-2.2-.1,0-.2-.1-.3-.1a.1.1,0,0,1-.1-.1c-2.4-1-4.9-1.9-7.2-2.9-.1,0-.3-.1-.4-.1l-1.9-.9c-2.4-1.2-4.7-2.5-7-3.9a33.78,33.78,0,0,1-3.6-2.7c-.1-1.3.1-2.8,0-2.9A91.84,91.84,0,0,1,842.7,54c.8-1.9,1.5-3.7,2.4-5.5a81.21,81.21,0,0,1,15.6-22.4c1.9-1.9,3.9-3.7,5.9-5.4a84,84,0,0,1,21.7-13,94.31,94.31,0,0,1,69.7,0,82,82,0,0,1,27.6,18.4,84.15,84.15,0,0,1,18,27.9A88,88,0,0,1,1010,82.6Z" fill="#00b52e"/><path d="M864.3,114.6c-1.4-.4-2.8-.9-4.1-1.4a23.07,23.07,0,0,1-2.8-1c.9.3,1.9.6,2.8,1A39.29,39.29,0,0,0,864.3,114.6Z" fill="#101820"/><path d="M1002.9,117.3c-.7,2.1-1.4,4.2-2.2,6.3a84.42,84.42,0,0,1-18.1,27.9A83.25,83.25,0,0,1,955,170a95.9,95.9,0,0,1-64.5,2,46.53,46.53,0,0,1-5.2-2,84,84,0,0,1-21.7-13l-1,.8a80.3,80.3,0,0,1-6.9,5,88.44,88.44,0,0,1-13.6,7.2,95.31,95.31,0,0,1-69.7,0,80.79,80.79,0,0,1-27.6-18.5,86.67,86.67,0,0,1-18.1-27.8,91.56,91.56,0,0,1-6.1-26.3,82.2,82.2,0,0,1-.6-9.9,90.91,90.91,0,0,1,6.3-33.8,87.65,87.65,0,0,1,17.3-27.5A77.72,77.72,0,0,1,770,7.6,84,84,0,0,1,803.6.9c.3,0,.7.1,1,.1h.6c.6,0,1.2-.1,1.8-.1a91.1,91.1,0,0,1,35,6.6,84.55,84.55,0,0,1,20.6,12.3l1,.8c-2,1.7-4,3.6-5.9,5.4a82.73,82.73,0,0,0-15.6,22.4l-1.4-1.3A48.33,48.33,0,0,0,828,38.7a51.48,51.48,0,0,0-20.8-4.1,57.93,57.93,0,0,0-8.3.6,45,45,0,0,0-11.7,3.5A50,50,0,0,0,771.6,50a51.7,51.7,0,0,0-9.1,13.5c-.5,1.1-1,2.4-1.5,3.7a63.61,63.61,0,0,0-3.6,21.6c0,1.2.1,2.4.2,3.5v.6a61,61,0,0,0,3.4,17.5,53.14,53.14,0,0,0,10,17.2,44.94,44.94,0,0,0,15.4,11.2,53.85,53.85,0,0,0,41.7,0,47.55,47.55,0,0,0,12.7-8.4l1.4-1.4q-1.35-2.7-2.4-5.4a89.43,89.43,0,0,1-5.8-23.3,75.67,75.67,0,0,0,7.6,4.9c2.4,1.4,5.1,2.7,7.9,4,2.5,1.1,5.2,2.2,7.9,3.2.9.3,1.9.6,2.8,1,1.3.5,2.7,1,4.1,1.4s2.8.9,4.3,1.3l.3.1c.6.2,1.6.4,2.7.7.4.1.9.2,1.4.3l.7.2,2.4.6,1.2.3a50.78,50.78,0,0,0,6.5,9.4,45.91,45.91,0,0,0,15.4,11.2,50,50,0,0,0,20.8,4.2,50.82,50.82,0,0,0,20.8-4.1,48.41,48.41,0,0,0,15.6-11.3c1-1.1,1.9-2.2,2.8-3.4,3-.2,5.9-.5,8.8-.7a2,2,0,0,0,.8-.1c2.5-.3,5-.5,7.5-.9,3.6-.5,7-1,10.4-1.6,2.8-.5,5.5-1,8.2-1.6S1000.3,117.9,1002.9,117.3Z" fill="#00b52e"/><path d="M890.5,171.9a144.07,144.07,0,0,1-3,20.6,71.79,71.79,0,0,1-13.1,28.6c-6.5,8.8-15.6,16.1-27.1,21.8s-26.4,8.6-44.3,8.6c-15.9,0-30.3-2.7-43-8.1a101,101,0,0,1-34.6-25l-4.3-4.7,25.9-28,4.9,6.8a61.18,61.18,0,0,0,22,18.4,65.68,65.68,0,0,0,30.2,7c9.8,0,18-1.4,24.7-4.2a41.34,41.34,0,0,0,15.7-11.1,45.4,45.4,0,0,0,8.6-16.6,82.6,82.6,0,0,0,2.8-21.6v-1.6a67.25,67.25,0,0,0,6.9-5l1-.8a84,84,0,0,0,21.7,13C887,170.7,888.8,171.3,890.5,171.9Z" fill="#00b52e"/><path d="M1055.3,78.8c0,13.7-15.2,26.6-41.5,35.3-3.5,1.2-7.1,2.2-10.9,3.2-2.6.6-5.2,1.3-8,1.9s-5.4,1.1-8.2,1.6c-3.4.6-6.9,1.2-10.4,1.6l-7.5.9a2.49,2.49,0,0,1-.8.1c-2.9.3-5.8.5-8.8.7h0c-6.8.5-13.7.7-20.5.7h-1.5a263.21,263.21,0,0,1-59.9-6.7l-1.2-.3q-1.05-.3-2.4-.6l-.7-.2-1.4-.3c-1.1-.3-2.1-.5-2.7-.7l-.3-.1c-1.5-.4-2.9-.9-4.3-1.3s-2.8-.9-4.1-1.4a23.07,23.07,0,0,1-2.8-1c-2.8-1-5.4-2.1-7.9-3.2a72.81,72.81,0,0,1-7.9-4,54.74,54.74,0,0,1-7.6-4.9,50.81,50.81,0,0,1-5.1-4.1c-6.3-5.9-9.5-12.1-9.4-18.5.1-8.6,6-17,17.3-24.3l1.6-1-.7,1.7a4.18,4.18,0,0,0-.4,1,3.7,3.7,0,0,0-.5,1.1.76.76,0,0,1-.2.4l-.3.6q-7.8,6.45-7.8,13.5a13.27,13.27,0,0,0,2.3,7.5,24.76,24.76,0,0,0,2.8,3.6c1,1,2,2,3.1,2.9s2.3,1.8,3.6,2.7a68.93,68.93,0,0,0,7,3.9l1.9.9c.1.1.2.1.4.1,2.2,1,4.6,2,7.2,2.9l.1.1c.1,0,.2.1.3.1,2.2.8,4.4,1.5,6.8,2.2,1.9.6,3.8,1.1,5.9,1.6l1.4.3c1.1.2,2.1.5,3.2.7a227.5,227.5,0,0,0,47.3,5h1.1a226,226,0,0,0,46.4-4.5l3.2-.8,2.7-.6,1.4-.3q3.9-1,7.2-2.1a88,88,0,0,0,9.6-3.6c2.4-1.1,4.7-2.2,7-3.5a46,46,0,0,0,6.9-4.6,38.33,38.33,0,0,0,2.9-2.8,20.17,20.17,0,0,0,3.9-5.3,12.63,12.63,0,0,0,1.4-5.7c0-4-1.9-8-5.8-11.8l-.2-.2a21.9,21.9,0,0,0-1.2-3.3,91.47,91.47,0,0,0-8.6-16.4l-.8-1.2,1.4.4a157.41,157.41,0,0,1,26.1,8.9,6.89,6.89,0,0,1,.3.8,4.88,4.88,0,0,0,.3.7h0c.2.6.5,1.1.7,1.7a20.43,20.43,0,0,0,13,10.5,19.64,19.64,0,0,0,5.9.9c.1.1.1.2.2.2a.22.22,0,0,0-.2-.2h1.5C1052.8,67.5,1055.4,73,1055.3,78.8Z" fill="#101820"/><path d="M1060.8,8.4a23.94,23.94,0,0,0-19.1-.2,24.19,24.19,0,0,0-7.6,5.1,28.89,28.89,0,0,0-6.7,10.8c-3.1,8.5-3.4,16.9-1.2,23.6a6.89,6.89,0,0,1,.3.8,4.88,4.88,0,0,0,.3.7h0c.2.6.5,1.1.7,1.7a20.43,20.43,0,0,0,13,10.5,19.64,19.64,0,0,0,5.9.9h1.5c10.1-.6,19.2-8.2,24.2-20.8C1076.7,30,1074.3,14.5,1060.8,8.4Z" fill="#101820"/><path d="M1004.3,156.1a14.08,14.08,0,0,1,1.1-5.4,13.22,13.22,0,0,1,7.3-7.2,13.9,13.9,0,0,1,10.6,0,13.37,13.37,0,0,1,7.3,7.1,13.8,13.8,0,0,1,0,10.8,13.7,13.7,0,0,1-26.3-5.3Zm2.2,0a11.5,11.5,0,0,0,3.4,8.2,13.4,13.4,0,0,0,3.7,2.5,11.7,11.7,0,0,0,9,0,11.75,11.75,0,0,0,6.2-6.2,12.21,12.21,0,0,0,0-9.2,11.52,11.52,0,0,0-2.5-3.7,11.69,11.69,0,0,0-12.7-2.4,11.75,11.75,0,0,0-6.2,6.2,11.79,11.79,0,0,0-.9,4.6Zm6.5-7.9h5.8a6.81,6.81,0,0,1,4.2,1.1,3.91,3.91,0,0,1,1.3,3.5,3.62,3.62,0,0,1-1.2,3.1,5.63,5.63,0,0,1-3,1.2l4.5,7h-2.4l-4.3-6.8h-2.8v6.8h-2.2Zm2.2,7h4.3a3.53,3.53,0,0,0,1.4-.3,2.54,2.54,0,0,0,1-.8,2,2,0,0,0,.3-1.5,2.77,2.77,0,0,0-.3-1.3,3,3,0,0,0-.8-.8,2.66,2.66,0,0,0-1.2-.3c-.4,0-.8-.1-1.3-.1h-3.4Z" fill="#101820"/><path d="M0,4.2H45.5L89.9,120.8h.7L135.4,4.2h42.7L112.5,170.8H68.1Z" fill="#101820"/><path d="M220.2,102c1.4,12.5,6.2,22.2,14.6,29.1s18.4,10.4,30.2,10.4c10.4,0,19.1-2.1,26.2-6.4a72.15,72.15,0,0,0,18.6-16.2l29.8,22.6c-9.7,12-20.6,20.6-32.6,25.7a94.58,94.58,0,0,1-37.8,7.6,99.26,99.26,0,0,1-35.4-6.2,83,83,0,0,1-48.1-45.3,94,94,0,0,1,0-71.8A83,83,0,0,1,205,23.9,84,84,0,0,1,233.8,6.2,99.26,99.26,0,0,1,269.2,0,80.73,80.73,0,0,1,301,6.1a68,68,0,0,1,24.6,17.5,81.08,81.08,0,0,1,16,28.3q5.7,16.8,5.7,38.7v11.5Zm85.4-31.2c-.2-12.3-4.1-21.9-11.5-29s-17.7-10.6-30.9-10.6q-18.75,0-29.7,10.8c-7.3,7.2-11.7,16.8-13.4,28.8Z" fill="#101820"/><path d="M547.2,4.2h39.6V30.9h.7a58.19,58.19,0,0,1,18-21.7c8.1-6.1,19.1-9.2,33-9.2,11.1,0,20.5,1.9,28.3,5.6A52.89,52.89,0,0,1,696.1,41a92.94,92.94,0,0,1,3.1,24.7V170.8H657.6V86.5c0-4.6-.2-9.8-.7-15.4a54.68,54.68,0,0,0-3.6-16,30,30,0,0,0-9.2-12.5c-4.2-3.3-9.8-5-17-5-6.9,0-12.8,1.2-17.5,3.5a33.7,33.7,0,0,0-11.8,9.4A36.63,36.63,0,0,0,591,64a61.65,61.65,0,0,0-2.1,16v90.9H547.3V4.2Z" fill="#101820"/><path d="M371.2,4.2h39.6V30.9h.7a60.14,60.14,0,0,1,18-21.7c8.1-6.1,19.1-9.2,33-9.2,11.1,0,20.5,1.9,28.3,5.6A52.89,52.89,0,0,1,520.1,41a97.79,97.79,0,0,1,3.1,24.7V170.8H481.6V86.5c0-4.6-.2-9.8-.7-15.4a54.68,54.68,0,0,0-3.6-16,30,30,0,0,0-9.2-12.5c-4.2-3.3-9.8-5-17-5-6.9,0-12.8,1.2-17.5,3.5a33.7,33.7,0,0,0-11.8,9.4A36.63,36.63,0,0,0,415,64a61.65,61.65,0,0,0-2.1,16v90.9H371.3V4.2Z" fill="#101820"/></g></g></svg>